<svg width="50" height="50" viewBox="0 0 50 50" xmlns="http://www.w3.org/2000/svg"><title>电影1</title><g fill="#696969" fill-rule="evenodd"><path d="M24.994 47c-.71 0-1.422-.034-2.136-.102C12.445 45.913 4.14 37.645 3.11 27.24c-.657-6.63 1.65-13.115 6.332-17.796 4.68-4.68 11.162-6.992 17.796-6.333 10.36 1.027 18.624 9.29 19.65 19.65.592 5.984-1.192 11.796-5.022 16.365-.162.193-.158.463.007.63l3.425 3.424c.586.584.586 1.534 0 2.12-.586.586-1.535.586-2.12 0l-3.426-3.425c-1.274-1.273-1.353-3.284-.185-4.677 3.307-3.946 4.847-8.97 4.335-14.142-.886-8.942-8.018-16.074-16.96-16.96-5.732-.562-11.336 1.426-15.38 5.47-4.042 4.042-6.034 9.647-5.467 15.378.89 8.98 8.058 16.117 17.045 16.968 3.867.37 7.68-.417 11.03-2.267.725-.4 1.637-.138 2.037.588.4.725.137 1.638-.588 2.038-3.26 1.8-6.896 2.73-10.626 2.73"></path><path d="M28 16c0 1.657-1.343 3-3 3s-3-1.343-3-3 1.343-3 3-3 3 1.343 3 3M28 34c0 1.657-1.343 3-3 3s-3-1.343-3-3 1.343-3 3-3 3 1.343 3 3M34 28c-1.657 0-3-1.343-3-3s1.343-3 3-3 3 1.343 3 3-1.343 3-3 3M16 28c-1.657 0-3-1.343-3-3s1.343-3 3-3 3 1.343 3 3-1.343 3-3 3"></path></g></svg>