<svg width="50" height="50" viewBox="0 0 50 50" xmlns="http://www.w3.org/2000/svg"><title>我的1</title><g fill="#696969" fill-rule="evenodd"><path d="M19.916 35.913c-.014-.016-.02-.036-.033-.05-.314-.32-.737-.455-1.153-.432C13.586 33.066 10 27.9 10 21.908 10 13.687 16.728 7 25 7c8.27 0 15 6.687 15 14.907 0 8.22-6.73 14.906-15 14.906-1.787 0-3.493-.328-5.084-.9zm14.502 1.225C39.558 33.98 43 28.343 43 21.908 43 12.032 34.925 4 25 4S7 12.033 7 21.907c0 6.657 3.68 12.466 9.113 15.552l-6.086 5.97c-.59.58-.6 1.53-.02 2.12.294.3.682.45 1.07.45.38 0 .76-.143 1.052-.43l6.916-6.785c1.867.654 3.865 1.028 5.954 1.028 2.324 0 4.54-.455 6.58-1.256l7.15 7.014c.292.287.672.43 1.05.43.39 0 .78-.15 1.072-.45.58-.59.57-1.54-.02-2.12l-6.414-6.292z"></path><path d="M30.358 25.068c-.77-.31-1.642.064-1.95.832-.554 1.375-1.89 2.263-3.408 2.263-1.503 0-2.835-.877-3.395-2.234-.316-.766-1.19-1.13-1.96-.815-.765.316-1.13 1.193-.813 1.96 1.024 2.483 3.446 4.088 6.168 4.088 2.75 0 5.178-1.627 6.19-4.144.31-.77-.063-1.643-.832-1.952"></path></g></svg>